PathFileType	4	(X/Y/Z)	Patient4_TMGait_0pt6_02_left_25.trc.trc
DataRate	CameraRate	NumFrames	NumMarkers	Units	OrigDataRate	OrigDataStartFrame	OrigNumFrames
82.352941176471	82.352941176471	4	33	mm	82.352941176471	36	       141
Frame#	Time	Sacral			L.Shoulder			Chest			R.Shoulder			Neck			R.ASIS			L.ASIS			R.Thigh.Superior			R.Thigh.Lateral			R.Thigh.Inferior			R.Patella			L.Thigh.Superior			L.Thigh.Lateral			L.Thigh.Inferior			L.Patella			L.Shank.Superior			L.Shank.Lateral			L.Shank.Inferior			R.Shank.Superior			R.Shank.Lateral			R.Shank.Inferior			R.Heel			R.Midfoot.Superior			R.Midfoot.Lateral			R.Toe			L.Heel			L.Midfoot.Lateral			L.Midfoot.Superior			L.Toe			L.Elbow			L.Wrist			R.Elbow			R.Wrist			
		X1	Y1	Z1	X2	Y2	Z2	X3	Y3	Z3	X4	Y4	Z4	X5	Y5	Z5	X6	Y6	Z6	X7	Y7	Z7	X8	Y8	Z8	X9	Y9	Z9	X10	Y10	Z10	X11	Y11	Z11	X12	Y12	Z12	X13	Y13	Z13	X14	Y14	Z14	X15	Y15	Z15	X16	Y16	Z16	X17	Y17	Z17	X18	Y18	Z18	X19	Y19	Z19	X20	Y20	Z20	X21	Y21	Z21	X22	Y22	Z22	X23	Y23	Z23	X24	Y24	Z24	X25	Y25	Z25	X26	Y26	Z26	X27	Y27	Z27	X28	Y28	Z28	X29	Y29	Z29	X30	Y30	Z30	X31	Y31	Z31	X32	Y32	Z32	X33	Y33	Z33	

36	31.015000000000	870.857036817361	1008.246414883214	432.928774779935	1044.957869828907	1418.631583419723	226.736566324618	1157.691262039602	1353.016079026110	382.000084660701	1090.680212324489	1444.303343974703	554.178480280479	1059.540331195156	1487.784975184810	372.799865391673	1093.267529030244	936.776739835713	547.912147344156	1081.435723574260	952.671105199342	274.223610323644	1133.892177942366	734.407523601926	521.244263789449	1054.496315229688	622.007816706789	580.884436511048	1135.872432918393	566.573627164734	505.219786917501	1127.620455902254	456.604131677482	519.899826658203	1149.097539711192	761.483911854340	304.067761078891	1076.506917605836	637.754918853034	241.835389686799	1171.156339567009	571.129126713498	305.100281112953	1179.675236412787	501.314280336909	313.177594871314	1159.232425066535	426.970108404596	303.736401921048	1079.239354401534	304.982801474602	254.275759619875	1144.351216791873	199.311285527708	323.484414551819	1052.434446932530	388.453435295343	518.480512052589	931.890315760436	339.714976848339	571.352588792753	925.367918058450	234.317436884139	513.755467531134	727.078008909591	148.538256657326	472.785081918413	901.478986511268	125.973195505826	522.476194651331	793.193348106755	107.725929828347	551.740609556058	982.873354171499	36.778232933725	558.690793176427	1030.612724313968	38.345470019033	369.287905952897	1102.540968354406	34.880067209861	286.551808940275	1184.001558290817	99.279184991913	310.862457533639	1313.071861784104	51.505069462096	281.504498486663	969.838641325484	1064.456334729339	134.271485162610	995.224067795024	805.421347758881	139.913027907503	1134.298444318729	1116.689722227649	700.934211269734	1350.114204133082	1122.758759660385	575.467618122152	
37	31.027142857143	869.605012210334	1009.173201080541	431.178577923524	1045.940382917572	1418.658075980542	224.009459770412	1157.420463972410	1353.645808368452	380.378662324382	1089.285568647929	1445.700338822655	551.747410931840	1059.508974907570	1488.484528489093	369.782329311032	1091.926335149590	937.538923632158	546.593830328611	1080.469332623626	953.920289753127	272.861922218378	1138.848501382425	738.671760354963	520.063815234719	1064.229246533594	623.948114110550	580.709309490242	1148.123674186920	570.738759650618	505.665960133675	1142.350770574153	459.249598659764	521.187360852567	1145.984120990739	760.656946265341	300.852511204904	1071.156892069609	638.015698723913	240.176034642245	1165.337400443990	570.383077782536	302.914601102602	1172.960573582642	500.845808747077	311.169740622507	1152.362858076390	426.726970586603	301.989735406720	1071.758399156735	304.821568002697	253.364942011272	1136.943741851455	199.231560564673	322.630546827983	1065.057271860030	391.522809646381	518.780463472510	941.822537576090	347.057335610904	569.537189610776	932.754817216274	241.679825495494	512.467182735538	732.320298853169	163.938977954829	467.587969824020	904.741940243183	133.346694399450	521.216998755950	794.749163357493	120.372669005207	548.212957098928	981.067645744373	39.504686117644	560.188703843011	1023.286013095699	38.297169266721	369.179813138833	1095.168625552846	34.730082031749	286.391841151279	1176.578963860189	99.337007558600	310.516938115101	1305.695312648310	51.714851795104	281.369929200412	978.568357438768	1063.095940587313	130.068176951194	1010.767664559600	804.853823770857	135.500079494134	1120.341019456105	1117.182821528226	700.694640406240	1338.623496239478	1108.691341260675	578.945597822694	
38	31.039285714286	868.245634328836	1010.016506737881	429.542062137458	1046.863064558699	1418.694822395516	221.555268570483	1157.084095645920	1354.218327529348	378.999995327243	1087.832620373122	1446.949011644753	549.604512140952	1059.449786890700	1489.159508146530	367.051384841855	1090.635570528590	938.227631820538	545.220185223617	1079.325281027372	955.144359195119	271.483218603497	1143.556873184054	743.205432897807	518.990405397903	1073.685919594224	626.457766165212	580.774514399792	1159.967994140798	575.557440958831	506.362262687604	1156.864294881025	462.815088802233	522.591121835373	1142.511593012412	759.831856520202	297.843589701235	1065.654246775977	638.319289161387	238.486030671006	1159.254289044085	569.646278502398	300.789468712875	1165.947416621968	500.348382247028	309.113101780647	1145.221945094292	426.484972958455	300.212913549684	1064.030201071647	304.627862120352	252.451793728495	1129.387537788984	199.145856115312	321.764298986168	1077.922622782673	395.201648073522	519.280020947151	952.340726970290	354.453313701113	567.921224173638	941.193626563494	249.140871906527	511.312137158612	739.264031078240	178.293418967836	462.587345748848	909.608821602514	140.935446995891	519.953722271207	798.246952207244	132.565592487238	544.829734073861	981.469803864911	43.082591709780	561.650420938015	1015.891086583542	38.233834468454	369.094895945958	1087.730044572880	34.562258762347	286.248976533385	1169.119268562016	99.342256318229	310.191613541990	1298.270341958790	51.815284231111	281.267132480983	987.329895352462	1062.032996111504	125.960746026396	1026.737687368243	804.784325794608	131.199644134496	1106.098766042624	1117.835424397808	700.205428922556	1326.245180335096	1093.818920023818	583.124512495575	
39	31.051428571429	866.825826416883	1010.787707561632	428.008518313324	1047.696578792909	1418.766075006442	219.394641390173	1156.688897922411	1354.750178768012	377.858336633311	1086.358679615238	1448.052710751036	547.760199485893	1059.365143559160	1489.822274477361	364.638139128413	1089.430702708847	938.876445257274	543.756620620340	1078.045021856202	956.330773789335	270.057211376108	1147.953480671555	747.940674146857	517.985823829787	1082.718764681934	629.497810356852	581.019244002675	1171.219437254055	580.957913579332	507.214897703087	1170.955104847103	467.223233342865	524.048440141853	1138.814367322598	759.062554717146	295.072464020043	1060.104327030231	638.668556382992	236.794867078991	1153.028637520655	568.933566093971	298.740908143744	1158.778371925883	499.841754304053	307.062989939802	1137.945467586384	426.254069194921	298.459176219902	1056.185427184921	304.431230109473	251.551529463449	1121.763146688181	199.062419550006	320.909649527912	1090.850828371807	399.407906077300	519.945670508858	963.342248849967	361.646677169606	566.622922327840	950.645457014393	256.414001937366	510.394209293401	747.813112829878	191.029427822912	458.175102170017	916.195360468362	148.353788466160	518.799744429702	803.817484134987	143.705604657029	541.844538589638	984.413383422408	47.294752497184	562.935784837623	1008.454501264981	38.166509132525	369.025576226285	1080.254311968570	34.393985373420	286.119403798074	1161.644388637730	99.313180379847	309.887718507351	1290.819662336401	51.837376884294	281.184234339400	996.110468321066	1061.288835819954	121.992947515234	1043.026579797940	805.254797707838	127.032581642017	1091.716684503108	1118.652969929487	699.457108756028	1312.915028466969	1078.177607475221	588.040119611736	
